<svg width="182" height="54" viewBox="0 0 182 54" fill="none" xmlns="http://www.w3.org/2000/svg">
<rect x="20" y="20" width="14" height="34" fill="#AB07C6"/>
<path d="M34 0H54V20H34V0Z" fill="#DA8EE7"/>
<g filter="url(#filter0_d)">
<path d="M0 0H20V20H0V0Z" fill="#C23BD8"/>
</g>
<path d="M45.7188 11.4375H31.0938V52H25.125V11.4375H10.5312V6.5H45.7188V11.4375Z" fill="white"/>
<rect x="47" y="15" width="15" height="15" fill="#C468D3"/>
<rect x="37" y="28" width="15" height="10" fill="#7C2584"/>
<rect x="37" y="51" width="145" height="3" fill="#C468D3"/>
<path d="M72.665 6.20312L76.8486 16.6445L81.0322 6.20312H83.2207V19H81.5332V14.0166L81.6914 8.6377L77.4902 19H76.1982L72.0059 8.66406L72.1729 14.0166V19H70.4854V6.20312H72.665ZM93.4248 15.6602H88.0635L86.8594 19H85.1191L90.0059 6.20312H91.4824L96.3779 19H94.6465L93.4248 15.6602ZM88.5732 14.2715H92.9238L90.7441 8.28613L88.5732 14.2715ZM102.794 13.8232H99.7881V19H98.0918V6.20312H102.328C103.77 6.20312 104.877 6.53125 105.65 7.1875C106.43 7.84375 106.819 8.79883 106.819 10.0527C106.819 10.8496 106.603 11.5439 106.169 12.1357C105.741 12.7275 105.144 13.1699 104.376 13.4629L107.382 18.8945V19H105.571L102.794 13.8232ZM99.7881 12.4434H102.381C103.219 12.4434 103.884 12.2266 104.376 11.793C104.874 11.3594 105.123 10.7793 105.123 10.0527C105.123 9.26172 104.886 8.65527 104.411 8.2334C103.942 7.81152 103.263 7.59766 102.372 7.5918H99.7881V12.4434ZM112.444 13.0498L110.88 14.6758V19H109.192V6.20312H110.88V12.5312L116.566 6.20312H118.605L113.569 11.8545L119.001 19H116.979L112.444 13.0498ZM129.486 6.20312V14.9043C129.48 16.1113 129.1 17.0986 128.344 17.8662C127.594 18.6338 126.574 19.0645 125.285 19.1582L124.837 19.1758C123.437 19.1758 122.32 18.7979 121.488 18.042C120.656 17.2861 120.234 16.2461 120.223 14.9219V6.20312H121.893V14.8691C121.893 15.7949 122.147 16.5156 122.657 17.0312C123.167 17.541 123.894 17.7959 124.837 17.7959C125.792 17.7959 126.521 17.541 127.025 17.0312C127.535 16.5215 127.79 15.8037 127.79 14.8779V6.20312H129.486ZM133.837 13.9902V19H132.149V6.20312H136.869C138.27 6.20312 139.365 6.56055 140.156 7.27539C140.953 7.99023 141.352 8.93652 141.352 10.1143C141.352 11.3564 140.962 12.3145 140.183 12.9883C139.409 13.6562 138.299 13.9902 136.852 13.9902H133.837ZM133.837 12.6104H136.869C137.771 12.6104 138.463 12.3994 138.943 11.9775C139.424 11.5498 139.664 10.9346 139.664 10.1318C139.664 9.37012 139.424 8.76074 138.943 8.30371C138.463 7.84668 137.804 7.60938 136.966 7.5918H133.837V12.6104ZM70.4854 40V27.2031H74.0977C75.2109 27.2031 76.1953 27.4492 77.0508 27.9414C77.9062 28.4336 78.5654 29.1338 79.0283 30.042C79.4971 30.9502 79.7344 31.9932 79.7402 33.1709V33.9883C79.7402 35.1953 79.5059 36.2529 79.0371 37.1611C78.5742 38.0693 77.9092 38.7666 77.042 39.2529C76.1807 39.7393 75.1758 39.9883 74.0273 40H70.4854ZM72.1729 28.5918V38.6201H73.9482C75.249 38.6201 76.2598 38.2158 76.9805 37.4072C77.707 36.5986 78.0703 35.4473 78.0703 33.9531V33.2061C78.0703 31.7529 77.7275 30.625 77.042 29.8223C76.3623 29.0137 75.3955 28.6035 74.1416 28.5918H72.1729ZM89.5312 34.085H83.9854V38.6201H90.4277V40H82.2979V27.2031H90.3398V28.5918H83.9854V32.7051H89.5312V34.085ZM96.7646 37.7588L100.421 27.2031H102.267L97.5205 40H96.0264L91.2891 27.2031H93.126L96.7646 37.7588ZM111.223 34.085H105.677V38.6201H112.119V40H103.989V27.2031H112.031V28.5918H105.677V32.7051H111.223V34.085ZM115.916 38.6201H121.98V40H114.22V27.2031H115.916V38.6201ZM133.169 34.0146C133.169 35.2686 132.958 36.3643 132.536 37.3018C132.114 38.2334 131.517 38.9453 130.743 39.4375C129.97 39.9297 129.067 40.1758 128.036 40.1758C127.028 40.1758 126.135 39.9297 125.355 39.4375C124.576 38.9395 123.97 38.2334 123.536 37.3193C123.108 36.3994 122.889 35.3359 122.877 34.1289V33.2061C122.877 31.9756 123.091 30.8887 123.519 29.9453C123.946 29.002 124.55 28.2812 125.329 27.7832C126.114 27.2793 127.011 27.0273 128.019 27.0273C129.044 27.0273 129.946 27.2764 130.726 27.7744C131.511 28.2666 132.114 28.9844 132.536 29.9277C132.958 30.8652 133.169 31.958 133.169 33.2061V34.0146ZM131.49 33.1885C131.49 31.6709 131.186 30.5078 130.576 29.6992C129.967 28.8848 129.114 28.4775 128.019 28.4775C126.952 28.4775 126.111 28.8848 125.496 29.6992C124.887 30.5078 124.573 31.6328 124.556 33.0742V34.0146C124.556 35.4854 124.863 36.6426 125.479 37.4863C126.1 38.3242 126.952 38.7432 128.036 38.7432C129.126 38.7432 129.97 38.3477 130.567 37.5566C131.165 36.7598 131.473 35.6201 131.49 34.1377V33.1885ZM137.388 34.9902V40H135.7V27.2031H140.42C141.82 27.2031 142.916 27.5605 143.707 28.2754C144.504 28.9902 144.902 29.9365 144.902 31.1143C144.902 32.3564 144.513 33.3145 143.733 33.9883C142.96 34.6562 141.85 34.9902 140.402 34.9902H137.388ZM137.388 33.6104H140.42C141.322 33.6104 142.014 33.3994 142.494 32.9775C142.975 32.5498 143.215 31.9346 143.215 31.1318C143.215 30.3701 142.975 29.7607 142.494 29.3037C142.014 28.8467 141.354 28.6094 140.517 28.5918H137.388V33.6104ZM154.289 34.085H148.743V38.6201H155.186V40H147.056V27.2031H155.098V28.5918H148.743V32.7051H154.289V34.085ZM161.979 34.8232H158.974V40H157.277V27.2031H161.514C162.955 27.2031 164.062 27.5312 164.836 28.1875C165.615 28.8438 166.005 29.7988 166.005 31.0527C166.005 31.8496 165.788 32.5439 165.354 33.1357C164.927 33.7275 164.329 34.1699 163.562 34.4629L166.567 39.8945V40H164.757L161.979 34.8232ZM158.974 33.4434H161.566C162.404 33.4434 163.069 33.2266 163.562 32.793C164.06 32.3594 164.309 31.7793 164.309 31.0527C164.309 30.2617 164.071 29.6553 163.597 29.2334C163.128 28.8115 162.448 28.5977 161.558 28.5918H158.974V33.4434Z" fill="white"/>
<path d="M38.4609 40.6406V54H33.9609V19.875H46.5469C50.2812 19.875 53.2031 20.8281 55.3125 22.7344C57.4375 24.6406 58.5 27.1641 58.5 30.3047C58.5 33.6172 57.4609 36.1719 55.3828 37.9688C53.3203 39.75 50.3594 40.6406 46.5 40.6406H38.4609ZM38.4609 36.9609H46.5469C48.9531 36.9609 50.7969 36.3984 52.0781 35.2734C53.3594 34.1328 54 32.4922 54 30.3516C54 28.3203 53.3594 26.6953 52.0781 25.4766C50.7969 24.2578 49.0391 23.625 46.8047 23.5781H38.4609V36.9609Z" fill="white"/>
<defs>
<filter id="filter0_d" x="0" y="0" width="20" height="20" filterUnits="userSpaceOnUse" color-interpolation-filters="sRGB">
<feFlood flood-opacity="0" result="BackgroundImageFix"/>
<feColorMatrix in="SourceAlpha" type="matrix" values="0 0 0 0 0 0 0 0 0 0 0 0 0 0 0 0 0 0 127 0"/>
<feOffset/>
<feColorMatrix type="matrix" values="0 0 0 0 0 0 0 0 0 0 0 0 0 0 0 0 0 0 0.25 0"/>
<feBlend mode="normal" in2="BackgroundImageFix" result="effect1_dropShadow"/>
<feBlend mode="normal" in="SourceGraphic" in2="effect1_dropShadow" result="shape"/>
</filter>
</defs>
</svg>
